<svg xmlns="http://www.w3.org/2000/svg" version="1.1" xmlns:xlink="http://www.w3.org/1999/xlink" xmlns:svgjs="http://svgjs.dev/svgjs" width="765" height="625" viewBox="0 0 305.5154663085937 300" style="background-color: rgb(155, 126, 189);" class="svg-animations "><svg viewBox="0 0 134 139" width="100" height="100" style="fill: rgb(255, 255, 255);" x="102.75773315429686" y="68.8660249710083"><svg width="134" height="134" viewBox="0 0 134 134" xmlns="http://www.w3.org/2000/svg">
	<path d="M67 0C29.9996 0 0 29.9996 0 67C0 78.8106 3.0596 89.8951 8.42686 99.5277L26.8233 81.1312V54.3467H40.2285V67.726L67 40.9545L125.573 99.5277C130.927 89.8951 134 78.8106 134 67C134 29.9996 104 0 67 0Z"/>
	<path d="M67 54.3467L13.7292 107.617C25.9676 123.654 45.2716 134 67 134C88.7283 134 108.032 123.654 120.271 107.617L67 54.3467ZM63.3829 119.532H52.5317V108.68H63.3829V119.532ZM63.3829 103.235H52.5317V92.3842H63.3829V103.235ZM81.4812 119.532H70.63V108.68H81.4812V119.532ZM81.4812 103.235H70.63V92.3842H81.4812V103.235Z"/>
	</svg></svg><text fill="#ffffff" font-family="Courier New" font-size="32px" x="25.459622192382795" y="195.51546420816896"><tspan dy="0" x="25.459622192382795">ProcrastiMate</tspan></text><text fill="#ffffff" font-family="Arial" font-size="16px" x="96.62230393588541" y="227.74222784781625"><tspan dy="0" x="96.62230393588541">Always on Time</tspan></text></svg>